<svg xmlns="http://www.w3.org/2000/svg" version="1.1" xmlns:xlink="http://www.w3.org/1999/xlink" xmlns:svgjs="http://svgjs.dev/svgjs" width="1000" height="1000" viewBox="0 0 1000 1000"><rect width="1000" height="1000" fill="#ffdc00"></rect><g transform="matrix(0.7,0,0,0.7,150.32094413547532,280.37797570850205)"><svg viewBox="0 0 393 247" data-background-color="#ffdc00" preserveAspectRatio="xMidYMid meet" height="628" width="1000" xmlns="http://www.w3.org/2000/svg" xmlns:xlink="http://www.w3.org/1999/xlink"><g id="tight-bounds" transform="matrix(1,0,0,1,-0.1801872074883022,-0.09999999999999432)"><svg viewBox="0 0 393.3603744149766 247.2" height="247.2" width="393.3603744149766"><g><svg viewBox="0 0 393.3603744149766 247.2" height="247.2" width="393.3603744149766"><g><svg viewBox="0 0 393.3603744149766 247.2" height="247.2" width="393.3603744149766"><g id="textblocktransform"><svg viewBox="0 0 393.3603744149766 247.2" height="247.2" width="393.3603744149766" id="textblock"><g><svg viewBox="0 0 393.3603744149766 247.2" height="247.2" width="393.3603744149766"><g transform="matrix(1,0,0,1,0,0)"><svg width="393.3603744149766" viewBox="1.2 -31.55 51 32.05" height="247.2" data-palette-color="#ffffff"><path d="M4.08-27.8Q6.95-31.55 13.5-31.55 20.05-31.55 22.88-27.85 25.7-24.15 25.7-15.83 25.7-7.5 22.8-3.5 19.9 0.5 13.4 0.5 6.9 0.5 4.05-3.45 1.2-7.4 1.2-15.73 1.2-24.05 4.08-27.8ZM17.1-15.8Q17.1-20.4 16.38-22.03 15.65-23.65 13.43-23.65 11.2-23.65 10.55-22.03 9.9-20.4 9.9-15.85L9.9-15.85 9.9-14.65Q9.9-9.8 10.63-8.28 11.35-6.75 13.58-6.75 15.8-6.75 16.45-8.2 17.1-9.65 17.1-14.2L17.1-14.2 17.1-15.8ZM52.2-16.2L52.2-16.2Q52.2 0 39.4 0L39.4 0 29.1 0 29.1-31.05 39.6-31.05Q46.45-31.05 49.32-27.23 52.2-23.4 52.2-16.2ZM39.25-7.2Q41.9-7.2 42.67-9.08 43.45-10.95 43.45-15.38 43.45-19.8 42.62-21.65 41.8-23.5 39.1-23.5L39.1-23.5 37.6-23.5 37.6-7.2 39.25-7.2Z" opacity="1" transform="matrix(1,0,0,1,0,0)" fill="#ffffff" class="wordmark-text-0" data-fill-palette-color="primary" id="text-0"></path></svg></g></svg></g></svg></g></svg></g><g></g></svg></g><defs></defs></svg><rect width="393.3603744149766" height="247.2" fill="none" stroke="none" visibility="hidden"></rect></g></svg></g></svg>